# Blender 5.1.1
# www.blender.org
mtllib PooM2.mtl
o Object_6
v 0.317500 0.953639 0.158750
v -0.317500 1.902818 0.158750
v -0.317500 0.953639 0.158750
v 0.317500 1.902818 0.158750
v -0.317500 0.953639 0.158750
v -0.317500 1.902818 -0.158750
v -0.317500 0.953639 -0.158751
v -0.317500 1.902818 0.158750
v -0.317500 0.953639 -0.158751
v 0.317500 1.902818 -0.158750
v 0.317500 0.953639 -0.158751
v -0.317500 1.902818 -0.158750
v 0.317500 0.953639 -0.158751
v 0.317500 1.902818 0.158750
v 0.317500 0.953639 0.158750
v 0.317500 1.902818 -0.158750
v -0.317500 1.902818 -0.158750
v 0.317500 1.902818 0.158750
v 0.317500 1.902818 -0.158750
v -0.317500 1.902818 0.158750
v -0.317500 0.953639 0.158750
v 0.317500 0.953639 -0.158751
v 0.317500 0.953639 0.158750
v -0.317500 0.953639 -0.158751
v 0.317500 1.905001 0.317500
v -0.317500 2.540001 0.317500
v -0.317500 1.905001 0.317500
v 0.317500 2.540001 0.317500
v -0.317500 1.905001 0.317500
v -0.317500 2.540001 -0.317500
v -0.317500 1.905001 -0.317500
v -0.317500 2.540001 0.317500
v -0.317500 1.905001 -0.317500
v 0.317500 2.540001 -0.317500
v 0.317500 1.905001 -0.317500
v -0.317500 2.540001 -0.317500
v 0.317500 1.905001 -0.317500
v 0.317500 2.540001 0.317500
v 0.317500 1.905001 0.317500
v 0.317500 2.540001 -0.317500
v -0.317500 2.540001 -0.317500
v 0.317500 2.540001 0.317500
v 0.317500 2.540001 -0.317500
v -0.317500 2.540001 0.317500
v -0.317500 1.905001 0.317500
v 0.317500 1.905001 -0.317500
v 0.317500 1.905001 0.317500
v -0.317500 1.905001 -0.317500
v -0.320628 0.952500 0.158749
v -0.635000 1.905000 0.158749
v -0.635000 0.952500 0.158749
v -0.320628 1.905000 0.158749
v -0.635000 0.952500 0.158749
v -0.635000 1.905000 -0.158751
v -0.635000 0.952500 -0.158751
v -0.635000 1.905000 0.158749
v -0.635000 0.952500 -0.158751
v -0.320628 1.905000 -0.158751
v -0.320628 0.952500 -0.158751
v -0.635000 1.905000 -0.158751
v -0.320628 0.952500 -0.158751
v -0.320628 1.905000 0.158749
v -0.320628 0.952500 0.158749
v -0.320628 1.905000 -0.158751
v -0.635000 1.905000 -0.158751
v -0.320628 1.905000 0.158749
v -0.320628 1.905000 -0.158751
v -0.635000 1.905000 0.158749
v -0.635000 0.952500 0.158749
v -0.320628 0.952500 -0.158751
v -0.320628 0.952500 0.158749
v -0.635000 0.952500 -0.158751
v 0.635000 0.952500 0.158749
v 0.319133 1.905000 0.158749
v 0.319133 0.952500 0.158749
v 0.635000 1.905000 0.158749
v 0.319133 0.952500 0.158749
v 0.319133 1.905000 -0.158751
v 0.319133 0.952500 -0.158751
v 0.319133 1.905000 0.158749
v 0.319133 0.952500 -0.158751
v 0.635000 1.905000 -0.158751
v 0.635000 0.952500 -0.158751
v 0.319133 1.905000 -0.158751
v 0.635000 0.952500 -0.158751
v 0.635000 1.905000 0.158749
v 0.635000 0.952500 0.158749
v 0.635000 1.905000 -0.158751
v 0.319133 1.905000 -0.158751
v 0.635000 1.905000 0.158749
v 0.635000 1.905000 -0.158751
v 0.319133 1.905000 0.158749
v 0.319133 0.952500 0.158749
v 0.635000 0.952500 -0.158751
v 0.635000 0.952500 0.158749
v 0.319133 0.952500 -0.158751
v 0.000935 0.000000 0.158750
v -0.309562 0.952433 0.158750
v -0.309562 0.000000 0.158750
v 0.000935 0.952433 0.158750
v -0.309562 0.000000 0.158750
v -0.309562 0.952433 -0.158750
v -0.309563 -0.000000 -0.158750
v -0.309562 0.952433 0.158750
v -0.309563 -0.000000 -0.158750
v 0.000935 0.952433 -0.158750
v 0.000935 -0.000000 -0.158750
v -0.309562 0.952433 -0.158750
v 0.000935 -0.000000 -0.158750
v 0.000935 0.952433 0.158750
v 0.000935 0.000000 0.158750
v 0.000935 0.952433 -0.158750
v -0.309562 0.952433 -0.158750
v 0.000935 0.952433 0.158750
v 0.000935 0.952433 -0.158750
v -0.309562 0.952433 0.158750
v -0.309562 0.000000 0.158750
v 0.000935 -0.000000 -0.158750
v 0.000935 0.000000 0.158750
v -0.309563 -0.000000 -0.158750
v 0.309563 0.000000 0.158750
v 0.001755 0.952433 0.158750
v 0.001755 0.000000 0.158750
v 0.309563 0.952433 0.158750
v 0.001755 0.000000 0.158750
v 0.001755 0.952433 -0.158750
v 0.001755 0.000000 -0.158750
v 0.001755 0.952433 0.158750
v 0.001755 0.000000 -0.158750
v 0.309563 0.952433 -0.158750
v 0.309563 0.000000 -0.158750
v 0.001755 0.952433 -0.158750
v 0.309563 0.000000 -0.158750
v 0.309563 0.952433 0.158750
v 0.309563 0.000000 0.158750
v 0.309563 0.952433 -0.158750
v 0.001755 0.952433 -0.158750
v 0.309563 0.952433 0.158750
v 0.309563 0.952433 -0.158750
v 0.001755 0.952433 0.158750
v 0.001755 0.000000 0.158750
v 0.309563 0.000000 -0.158750
v 0.309563 0.000000 0.158750
v 0.001755 0.000000 -0.158750
vn -0.0000 -0.0000 1.0000
vn -1.0000 -0.0000 -0.0000
vn -0.0000 -0.0000 -1.0000
vn 1.0000 -0.0000 -0.0000
vn -0.0000 1.0000 -0.0000
vn -0.0000 -1.0000 -0.0000
vt 0.453125 0.421875
vt 0.328125 0.234375
vt 0.328125 0.421875
vt 0.453125 0.234375
vt 0.312500 0.421875
vt 0.250000 0.234375
vt 0.250000 0.421875
vt 0.312500 0.234375
vt 0.671875 0.421875
vt 0.546875 0.234375
vt 0.546875 0.421875
vt 0.671875 0.234375
vt 0.531250 0.421875
vt 0.468750 0.234375
vt 0.468750 0.421875
vt 0.531250 0.234375
vt 0.328125 0.156250
vt 0.453125 0.218750
vt 0.453125 0.156250
vt 0.328125 0.218750
vt 0.546875 0.218750
vt 0.671875 0.156250
vt 0.671875 0.218750
vt 0.546875 0.156250
vt 0.703125 0.140625
vt 0.578125 0.015625
vt 0.578125 0.140625
vt 0.703125 0.015625
vt 0.562500 0.140625
vt 0.437500 0.015625
vt 0.437500 0.140625
vt 0.562500 0.015625
vt 0.984375 0.140625
vt 0.859375 0.015625
vt 0.859375 0.140625
vt 0.984375 0.015625
vt 0.843750 0.140625
vt 0.718750 0.015625
vt 0.718750 0.140625
vt 0.843750 0.015625
vt 0.156250 0.015625
vt 0.281250 0.140625
vt 0.281250 0.015625
vt 0.156250 0.140625
vt 0.296875 0.140625
vt 0.421875 0.015625
vt 0.421875 0.140625
vt 0.296875 0.015625
vt 0.828125 0.421875
vt 0.765625 0.234375
vt 0.765625 0.421875
vt 0.828125 0.234375
vt 0.750000 0.421875
vt 0.687500 0.234375
vt 0.687500 0.421875
vt 0.750000 0.234375
vt 0.984375 0.421875
vt 0.921875 0.234375
vt 0.921875 0.421875
vt 0.984375 0.234375
vt 0.906250 0.421875
vt 0.843750 0.234375
vt 0.843750 0.421875
vt 0.906250 0.234375
vt 0.765625 0.156250
vt 0.828125 0.218750
vt 0.828125 0.156250
vt 0.765625 0.218750
vt 0.843750 0.218750
vt 0.906250 0.156250
vt 0.906250 0.218750
vt 0.843750 0.156250
vt 0.828125 0.703125
vt 0.765625 0.515625
vt 0.765625 0.703125
vt 0.828125 0.515625
vt 0.750000 0.703125
vt 0.687500 0.515625
vt 0.687500 0.703125
vt 0.750000 0.515625
vt 0.984375 0.703125
vt 0.921875 0.515625
vt 0.921875 0.703125
vt 0.984375 0.515625
vt 0.906250 0.703125
vt 0.843750 0.515625
vt 0.843750 0.703125
vt 0.906250 0.515625
vt 0.765625 0.437500
vt 0.828125 0.500000
vt 0.828125 0.437500
vt 0.765625 0.500000
vt 0.843750 0.500000
vt 0.906250 0.437500
vt 0.906250 0.500000
vt 0.843750 0.437500
s 0
usemtl M_Extnd04_Object_04002_Body_L_Inst
f 1/1/1 2/2/1 3/3/1
f 1/1/1 4/4/1 2/2/1
f 5/5/2 6/6/2 7/7/2
f 5/5/2 8/8/2 6/6/2
f 9/9/3 10/10/3 11/11/3
f 9/9/3 12/12/3 10/10/3
f 13/13/4 14/14/4 15/15/4
f 13/13/4 16/16/4 14/14/4
f 17/17/5 18/18/5 19/19/5
f 17/17/5 20/20/5 18/18/5
f 21/21/6 22/22/6 23/23/6
f 21/21/6 24/24/6 22/22/6
f 25/25/1 26/26/1 27/27/1
f 25/25/1 28/28/1 26/26/1
f 29/29/2 30/30/2 31/31/2
f 29/29/2 32/32/2 30/30/2
f 33/33/3 34/34/3 35/35/3
f 33/33/3 36/36/3 34/34/3
f 37/37/4 38/38/4 39/39/4
f 37/37/4 40/40/4 38/38/4
f 41/41/5 42/42/5 43/43/5
f 41/41/5 44/44/5 42/42/5
f 45/45/6 46/46/6 47/47/6
f 45/45/6 48/48/6 46/46/6
f 49/49/1 50/50/1 51/51/1
f 49/49/1 52/52/1 50/50/1
f 53/53/2 54/54/2 55/55/2
f 53/53/2 56/56/2 54/54/2
f 57/57/3 58/58/3 59/59/3
f 57/57/3 60/60/3 58/58/3
f 61/61/4 62/62/4 63/63/4
f 61/61/4 64/64/4 62/62/4
f 65/65/5 66/66/5 67/67/5
f 65/65/5 68/68/5 66/66/5
f 69/69/6 70/70/6 71/71/6
f 69/69/6 72/72/6 70/70/6
f 73/49/1 74/50/1 75/51/1
f 73/49/1 76/52/1 74/50/1
f 77/53/2 78/54/2 79/55/2
f 77/53/2 80/56/2 78/54/2
f 81/57/3 82/58/3 83/59/3
f 81/57/3 84/60/3 82/58/3
f 85/61/4 86/62/4 87/63/4
f 85/61/4 88/64/4 86/62/4
f 89/65/5 90/66/5 91/67/5
f 89/65/5 92/68/5 90/66/5
f 93/69/6 94/70/6 95/71/6
f 93/69/6 96/72/6 94/70/6
f 97/73/1 98/74/1 99/75/1
f 97/73/1 100/76/1 98/74/1
f 101/77/2 102/78/2 103/79/2
f 101/77/2 104/80/2 102/78/2
f 105/81/3 106/82/3 107/83/3
f 105/81/3 108/84/3 106/82/3
f 109/85/4 110/86/4 111/87/4
f 109/85/4 112/88/4 110/86/4
f 113/89/5 114/90/5 115/91/5
f 113/89/5 116/92/5 114/90/5
f 117/93/6 118/94/6 119/95/6
f 117/93/6 120/96/6 118/94/6
f 121/73/1 122/74/1 123/75/1
f 121/73/1 124/76/1 122/74/1
f 125/77/2 126/78/2 127/79/2
f 125/77/2 128/80/2 126/78/2
f 129/81/3 130/82/3 131/83/3
f 129/81/3 132/84/3 130/82/3
f 133/85/4 134/86/4 135/87/4
f 133/85/4 136/88/4 134/86/4
f 137/89/5 138/90/5 139/91/5
f 137/89/5 140/92/5 138/90/5
f 141/93/6 142/94/6 143/95/6
f 141/93/6 144/96/6 142/94/6
